<?xml version="1.0" standalone="no"?>
<!DOCTYPE svg PUBLIC "-//W3C//DTD SVG 20010904//EN"
 "http://www.w3.org/TR/2001/REC-SVG-20010904/DTD/svg10.dtd">
<svg version="1.0" xmlns="http://www.w3.org/2000/svg"
 width="300.000000pt" height="300.000000pt" viewBox="0 0 300.000000 300.000000"
 preserveAspectRatio="xMidYMid meet">
<metadata>
Created by potrace 1.10, written by Peter Selinger 2001-2011
</metadata>
<g transform="translate(0.000000,300.000000) scale(0.100000,-0.100000)"
fill="#000000" stroke="none">
<path d="M1570 2738 c0 -23 -3 -29 -9 -19 -6 9 -11 10 -15 2 -9 -14 1 -31 20
-31 10 0 14 12 14 40 0 22 -2 40 -5 40 -3 0 -5 -15 -5 -32z"/>
<path d="M1621 2727 c-1 -36 5 -57 25 -86 27 -42 49 -57 59 -41 10 16 77 10
109 -8 34 -20 110 -143 120 -193 4 -22 12 -36 21 -36 11 0 12 4 5 11 -5 5 -10
20 -10 31 0 12 -21 57 -47 101 -35 57 -59 85 -88 101 -43 24 -94 30 -112 12
-17 -17 -63 52 -73 108 l-8 48 -1 -48z"/>
<path d="M1481 2749 c-1 -9 -12 -21 -26 -27 -14 -7 -29 -20 -32 -29 -4 -10
-14 -23 -22 -30 -14 -10 -13 -11 6 -7 12 3 24 17 27 30 5 19 13 24 36 24 32 0
34 3 20 35 -6 15 -9 16 -9 4z"/>
<path d="M1490 2655 c-7 -9 -11 -17 -9 -20 3 -2 10 5 17 15 14 24 10 26 -8 5z"/>
<path d="M1590 2638 c14 -12 49 -74 78 -136 29 -63 58 -120 66 -128 8 -7 16
-19 19 -26 2 -7 8 -10 12 -6 4 4 -4 19 -18 33 -13 15 -46 76 -73 137 -36 79
-57 115 -79 129 l-30 21 25 -24z"/>
<path d="M1339 2633 c-13 -16 -12 -17 4 -4 9 7 17 15 17 17 0 8 -8 3 -21 -13z"/>
<path d="M1540 2623 c0 -5 8 -17 17 -28 14 -18 15 -18 9 -2 -3 10 -6 23 -6 28
0 5 -4 9 -10 9 -5 0 -10 -3 -10 -7z"/>
<path d="M1462 2600 c0 -14 2 -19 5 -12 2 6 2 18 0 25 -3 6 -5 1 -5 -13z"/>
<path d="M1316 2593 c-6 -14 -5 -15 5 -6 7 7 10 15 7 18 -3 3 -9 -2 -12 -12z"/>
<path d="M1517 2593 c-4 -3 -7 -13 -7 -22 1 -13 3 -13 11 2 11 19 8 33 -4 20z"/>
<path d="M1539 2570 c-3 -42 -8 -78 -14 -110 -5 -26 -4 -31 4 -20 7 9 11 10
11 3 0 -6 -4 -14 -9 -17 -14 -9 -21 -83 -26 -257 -2 -86 -7 -168 -11 -183 -8
-32 4 -99 16 -91 5 3 12 -1 17 -8 4 -7 17 -17 27 -20 14 -6 16 -4 9 5 -9 13
-13 37 -15 88 -1 48 2 61 12 55 6 -3 10 -2 10 4 0 5 -5 11 -12 13 -6 2 -11 24
-11 51 1 64 12 109 25 101 7 -4 8 -2 4 4 -4 6 -12 9 -19 6 -9 -3 -12 5 -11 23
1 16 3 30 4 33 1 3 1 15 0 27 -1 13 2 28 7 35 11 17 12 100 2 114 -5 6 -3 19
6 30 15 20 20 49 8 41 -5 -3 -9 8 -10 24 -3 34 -22 74 -24 49z m-1 -252 c-11
-21 -12 -21 -16 -4 -2 10 2 22 10 27 10 7 10 9 0 9 -7 0 -10 5 -6 11 14 23 26
-19 12 -43z m-1 -128 c1 -11 -2 -22 -8 -25 -5 -4 -9 5 -9 19 0 30 15 35 17 6z
m3 -54 c0 -3 -4 -8 -10 -11 -5 -3 -10 -1 -10 4 0 6 5 11 10 11 6 0 10 -2 10
-4z m-9 -158 c-5 -39 -4 -59 3 -62 6 -3 7 -5 1 -5 -5 0 -17 3 -25 9 -12 7 -12
14 -2 43 7 18 12 46 12 62 0 18 4 25 9 20 6 -6 7 -33 2 -67z"/>
<path d="M1511 1944 c0 -11 3 -14 6 -6 3 7 2 16 -1 19 -3 4 -6 -2 -5 -13z"/>
<path d="M1301 2534 c0 -11 3 -14 6 -6 3 7 2 16 -1 19 -3 4 -6 -2 -5 -13z"/>
<path d="M1512 2530 c0 -14 2 -19 5 -12 2 6 2 18 0 25 -3 6 -5 1 -5 -13z"/>
<path d="M1462 2369 c-17 -90 -43 -227 -57 -303 -15 -77 -24 -148 -22 -157 4
-16 1 -15 -29 4 -18 12 -29 24 -24 25 6 2 -37 28 -95 58 -58 30 -111 52 -117
48 -6 -4 -8 -3 -5 2 3 6 -3 16 -15 23 -16 10 -18 10 -12 0 5 -9 2 -10 -10 -6
-10 4 -20 7 -22 7 -3 0 -3 4 0 9 4 5 -3 7 -15 4 -19 -5 -19 -7 8 -24 15 -11
34 -17 41 -14 6 2 12 0 12 -5 0 -6 44 -32 98 -58 53 -26 108 -57 122 -69 14
-12 34 -29 45 -37 20 -15 20 -15 0 -30 -11 -8 -32 -18 -46 -21 -25 -6 -179
-130 -179 -144 0 -3 -11 -6 -25 -6 -18 0 -27 6 -30 20 -9 44 -26 155 -37 253
-6 56 -16 102 -21 102 -5 0 -7 -9 -4 -20 3 -11 1 -18 -4 -14 -11 7 -11 -7 1
-103 24 -186 33 -235 41 -221 6 9 9 7 9 -9 0 -13 -4 -23 -10 -23 -5 0 -10 -4
-10 -10 0 -5 7 -7 15 -3 9 3 24 -2 33 -10 16 -15 19 -13 40 18 37 53 136 133
206 166 36 17 71 29 77 27 6 -2 -19 -16 -57 -31 -67 -26 -91 -42 -166 -113
-50 -47 -71 -115 -72 -231 -1 -51 -4 -93 -8 -93 -5 0 -8 34 -8 76 0 69 -2 75
-19 69 -14 -4 -20 1 -25 20 -4 14 -11 25 -17 25 -6 0 -6 -7 1 -21 10 -17 8
-21 -9 -26 -29 -7 -15 -25 17 -21 26 3 27 1 34 -66 4 -38 11 -73 17 -79 8 -8
11 -7 11 3 0 8 11 -7 24 -35 24 -51 108 -143 149 -163 12 -6 46 -21 75 -33 28
-12 52 -25 52 -30 0 -14 -121 41 -164 74 -52 40 -108 103 -123 137 -13 31 -20
37 -54 44 -36 6 -397 94 -454 110 -27 8 -75 20 -105 26 -30 7 -71 18 -91 25
-31 10 -49 11 -94 5 -35 -4 646 -181 713 -184 51 -3 52 -4 45 -39 -4 -22 -8
-25 -15 -15 -7 9 -8 4 -3 -15 3 -18 2 -26 -4 -23 -6 4 -8 -2 -6 -12 1 -10 -4
-33 -12 -52 -9 -19 -18 -43 -20 -53 -2 -11 -19 -52 -38 -92 -22 -45 -33 -79
-28 -90 4 -12 3 -16 -4 -12 -7 5 -9 0 -6 -12 3 -10 0 -28 -6 -40 -11 -20 -10
-20 31 -7 24 8 63 21 87 30 24 9 46 14 49 12 2 -3 11 1 18 9 8 7 23 11 35 8
17 -5 20 -3 14 7 -6 10 -3 12 13 8 14 -4 20 -2 16 4 -4 6 2 8 16 3 17 -5 21
-4 15 6 -6 9 -2 11 13 7 14 -4 20 -2 15 5 -4 7 0 8 11 4 11 -5 15 -3 10 5 -5
8 -2 9 10 5 9 -4 15 -3 12 2 -3 5 5 11 19 13 22 5 26 1 36 -36 6 -23 17 -59
24 -81 7 -22 16 -56 20 -75 4 -19 14 -43 22 -52 8 -9 16 -33 18 -53 4 -45 6
-47 23 -29 7 8 9 14 4 14 -9 0 -26 56 -23 73 1 5 -3 6 -9 2 -6 -4 -10 4 -10
19 0 14 -5 26 -10 26 -6 0 -10 6 -9 13 2 6 -7 43 -19 81 -12 38 -24 83 -27
100 -5 29 -4 30 10 12 13 -17 15 -17 15 -4 0 9 -9 20 -20 23 -12 4 -20 15 -20
29 0 12 -6 28 -12 35 -11 11 -8 12 12 6 14 -4 31 -12 38 -17 8 -7 16 -7 25 0
6 5 32 9 57 7 25 -1 62 3 83 10 20 7 37 9 37 5 0 -5 -9 -12 -20 -15 -11 -3
-20 -11 -20 -16 0 -6 -3 -8 -7 -6 -5 3 -16 -6 -26 -19 -10 -13 -13 -24 -8 -24
5 0 12 -19 14 -43 3 -41 4 -41 5 9 1 34 7 54 16 57 8 3 17 -1 20 -8 6 -16 36
-9 36 7 0 6 -7 7 -16 4 -11 -4 -14 -1 -12 10 2 9 20 22 40 29 20 7 70 33 111
59 41 25 78 46 82 46 3 0 3 -10 0 -22 -5 -18 -4 -20 4 -8 6 8 11 11 12 5 1 -5
2 -15 3 -20 3 -22 79 -106 86 -95 5 7 10 2 14 -14 3 -14 13 -26 22 -26 8 0 12
-4 9 -10 -3 -5 1 -10 10 -10 9 0 14 -4 11 -9 -3 -4 4 -17 17 -27 l22 -19 -18
22 c-17 20 -17 22 -2 25 13 2 4 18 -41 68 -33 35 -79 83 -103 106 -41 39 -43
43 -28 58 9 10 22 25 29 35 7 10 25 21 39 24 24 6 27 3 38 -36 7 -23 16 -51
21 -62 21 -46 70 -181 70 -193 0 -7 7 -24 16 -38 18 -26 14 -41 -8 -28 -12 8
-32 12 -70 16 -9 1 -15 6 -12 10 2 4 -13 14 -33 24 -21 9 -63 27 -93 41 -95
41 -125 61 -123 78 4 44 -16 -9 -31 -85 -10 -47 -32 -146 -48 -220 -16 -74
-31 -145 -32 -158 -2 -12 -6 -25 -9 -29 -4 -3 -7 -17 -7 -29 0 -13 -5 -33 -10
-46 -7 -15 -8 -37 -1 -63 5 -22 9 -32 10 -22 1 10 16 82 35 160 65 274 78 337
72 352 -4 10 -2 14 6 9 7 -5 9 1 6 19 -3 15 -2 24 2 22 4 -3 10 4 13 15 3 11
0 20 -6 20 -6 0 -8 2 -6 5 3 2 18 0 35 -4 21 -7 24 -10 9 -11 -20 -1 -20 -1 0
-10 27 -12 37 -12 30 0 -3 6 1 7 9 4 9 -3 14 -10 11 -14 -6 -9 124 -74 158
-79 4 0 20 -7 37 -16 35 -18 44 -19 34 -3 -5 8 -2 9 9 5 10 -4 23 -10 31 -13
11 -4 13 0 9 17 -4 15 -3 20 6 15 10 -6 -3 36 -41 136 -6 15 -15 25 -21 21 -5
-3 -7 -2 -4 4 10 16 -15 86 -25 71 -6 -8 -8 -2 -5 17 2 17 2 23 -1 15 -3 -8
-11 5 -18 30 -20 66 -19 73 14 66 18 -5 23 -4 13 3 -23 15 -114 4 -126 -15
-29 -48 -218 -181 -245 -172 -5 2 16 16 48 33 118 60 212 149 212 199 0 8 5
18 12 22 7 5 9 0 6 -14 -9 -34 11 -42 71 -28 30 7 56 17 58 22 2 6 18 8 35 6
20 -3 29 -1 24 6 -8 14 -59 8 -64 -7 -3 -9 -8 -9 -20 1 -13 11 -14 11 -7 -1 6
-11 4 -13 -8 -8 -10 3 -17 3 -17 -1 0 -4 -13 -9 -30 -10 -24 -2 -30 2 -30 17
0 11 -4 22 -9 26 -6 3 -6 17 -1 35 5 17 6 30 3 30 -3 0 -1 6 5 13 11 14 7 75
-9 125 -10 30 -16 56 -18 74 -1 11 -63 73 -108 107 -79 60 -279 113 -324 86
-5 -4 -9 -2 -9 3 0 5 19 13 43 17 31 6 36 9 19 12 -13 3 -37 0 -54 -6 -47 -16
-52 -4 -35 85 9 44 22 117 31 164 8 47 24 136 36 198 12 62 19 118 17 125 -2
7 0 20 4 29 5 9 5 27 1 39 -6 16 -17 -20 -40 -142z m-287 -357 c-3 -3 -11 0
-18 7 -9 10 -8 11 6 5 10 -3 15 -9 12 -12z m458 -212 c80 -27 102 -39 158 -90
69 -62 85 -94 99 -195 13 -91 -31 -211 -97 -262 -57 -46 -151 -99 -213 -121
-131 -45 -307 33 -408 182 -25 36 -27 47 -27 140 0 56 7 122 14 148 29 103
213 221 354 227 15 0 69 -13 120 -29z m-503 -509 c0 -4 13 -24 30 -42 16 -19
30 -37 30 -41 0 -4 28 -26 61 -50 46 -32 67 -54 80 -86 20 -46 23 -60 12 -49
-3 4 -11 3 -17 -2 -6 -4 -56 -25 -111 -45 -55 -21 -133 -50 -172 -66 -40 -15
-73 -24 -73 -20 0 19 86 248 100 265 7 9 18 46 34 118 6 24 26 39 26 18z m778
-207 c-5 -5 -68 62 -68 72 0 4 16 -10 36 -30 20 -20 34 -39 32 -42z m156 -119
c7 -34 -7 -15 -19 25 -5 16 -4 22 3 15 5 -5 12 -23 16 -40z m-157 -1 c-5 -5
-57 13 -57 20 0 3 14 0 31 -6 16 -6 28 -12 26 -14z m-330 -466 c-3 -8 -6 -5
-6 6 -1 11 2 17 5 13 3 -3 4 -12 1 -19z"/>
<path d="M1113 1188 c-1 -12 -8 -25 -15 -29 -7 -5 -10 -9 -6 -9 4 0 3 -13 -2
-28 -5 -21 -4 -29 5 -29 7 0 11 6 9 12 -3 6 1 25 7 41 16 39 19 53 10 58 -4 3
-8 -5 -8 -16z"/>
<path d="M1157 1183 c-10 -9 -9 -33 1 -33 4 0 8 9 9 20 2 21 0 24 -10 13z"/>
<path d="M1220 1150 c0 -5 5 -10 11 -10 5 0 7 5 4 10 -3 6 -8 10 -11 10 -2 0
-4 -4 -4 -10z"/>
<path d="M1173 1118 c-13 -13 -34 -35 -48 -50 -14 -16 -32 -28 -39 -28 -15 0
-50 -37 -59 -62 -10 -28 6 -21 28 12 21 31 55 41 55 15 0 -8 6 -15 14 -15 21
0 47 30 39 43 -5 8 -9 6 -11 -6 -2 -9 -8 -15 -13 -12 -5 4 -9 0 -9 -7 0 -8 -5
-6 -11 5 -11 19 -3 41 12 32 5 -4 9 -1 9 5 0 6 16 26 35 46 19 19 35 37 35 39
0 11 -17 3 -37 -17z"/>
<path d="M1190 1086 c0 -14 -6 -26 -12 -26 -10 0 -9 -3 1 -9 8 -5 10 -14 6
-21 -5 -8 -4 -11 2 -7 13 8 22 76 11 83 -4 3 -8 -6 -8 -20z"/>
<path d="M1226 1084 c-22 -21 -20 -27 4 -12 11 7 20 16 20 20 0 12 -7 10 -24
-8z"/>
<path d="M1274 1082 c-17 -11 -12 -38 7 -38 10 0 16 4 13 7 -2 4 0 10 6 14 5
3 10 10 10 16 0 11 -20 12 -36 1z"/>
<path d="M1055 1060 c3 -5 8 -10 11 -10 2 0 4 5 4 10 0 6 -5 10 -11 10 -5 0
-7 -4 -4 -10z"/>
<path d="M1221 1024 c0 -11 3 -14 6 -6 3 7 2 16 -1 19 -3 4 -6 -2 -5 -13z"/>
<path d="M1076 995 c-3 -8 -1 -15 4 -15 5 0 7 -8 3 -17 -4 -11 -2 -15 3 -10
11 10 13 57 3 57 -4 0 -9 -7 -13 -15z"/>
<path d="M1047 951 c-3 -14 -1 -18 9 -14 16 6 18 19 5 27 -5 3 -11 -3 -14 -13z"/>
<path d="M1577 2456 c-15 -22 -15 -25 -1 -37 10 -8 14 -22 10 -40 -3 -17 0
-32 9 -39 8 -6 11 -19 8 -28 -4 -13 -3 -14 6 -6 9 8 9 18 1 40 -6 16 -12 53
-13 81 -1 29 -3 53 -3 53 -1 0 -9 -11 -17 -24z"/>
<path d="M1626 2383 c-6 -14 -5 -15 5 -6 7 7 10 15 7 18 -3 3 -9 -2 -12 -12z"/>
<path d="M1310 2354 c0 -28 -3 -35 -15 -30 -9 3 -15 0 -15 -8 0 -8 8 -12 23
-9 20 4 22 9 19 44 -5 49 -12 51 -12 3z"/>
<path d="M1238 2278 c-2 -32 -7 -42 -18 -39 -52 13 -55 12 -30 -3 47 -29 60
-22 60 34 0 61 -8 66 -12 8z"/>
<path d="M1336 2249 c-8 -42 0 -50 9 -9 4 17 5 34 2 36 -2 3 -7 -10 -11 -27z"/>
<path d="M2252 2270 c-13 -6 -35 -19 -49 -29 -13 -11 -48 -25 -78 -31 -32 -7
-56 -17 -59 -27 -9 -23 1 -28 21 -11 10 9 34 18 54 22 20 3 57 20 83 38 44 28
50 30 84 20 48 -15 151 -119 127 -128 -9 -4 -27 -2 -41 4 -23 11 -24 10 -24
-23 0 -19 4 -35 9 -35 5 0 8 8 7 18 -1 13 6 17 26 15 18 -1 31 4 38 17 8 15 3
27 -26 62 -64 76 -125 107 -172 88z"/>
<path d="M969 2253 c-13 -16 -12 -17 4 -4 9 7 17 15 17 17 0 8 -8 3 -21 -13z"/>
<path d="M1019 2256 c25 -30 105 -64 140 -58 23 3 29 7 20 13 -8 4 -24 6 -36
2 -14 -3 -34 2 -51 13 -15 11 -40 25 -56 32 -25 10 -27 10 -17 -2z"/>
<path d="M1600 2247 c-10 -20 -10 -20 3 -5 10 13 17 14 25 6 6 -6 14 -10 16
-7 3 3 -4 10 -14 17 -17 10 -21 9 -30 -11z"/>
<path d="M1651 2214 c0 -11 3 -14 6 -6 3 7 2 16 -1 19 -3 4 -6 -2 -5 -13z"/>
<path d="M1619 2168 c-4 -83 -4 -108 2 -108 4 0 7 32 7 70 0 70 -7 98 -9 38z"/>
<path d="M1650 2179 c0 -5 5 -7 10 -4 6 3 10 8 10 11 0 2 -4 4 -10 4 -5 0 -10
-5 -10 -11z"/>
<path d="M920 2164 c0 -6 -16 -36 -35 -68 -19 -32 -28 -53 -19 -45 20 16 67
109 60 117 -3 3 -6 1 -6 -4z"/>
<path d="M1647 2141 c-3 -11 -2 -21 3 -21 8 0 25 -64 23 -87 0 -7 2 -13 6 -13
3 0 7 -19 8 -42 2 -23 7 -46 13 -52 20 -20 9 -29 -12 -10 -23 19 -23 19 -5 -2
9 -11 17 -28 17 -37 0 -15 -35 -34 -53 -29 -5 1 -5 -2 -2 -8 4 -6 13 -9 21 -6
8 3 14 1 14 -5 0 -6 10 -10 23 -9 37 3 47 1 47 -12 0 -7 31 -41 68 -75 62 -55
71 -69 90 -130 12 -38 22 -84 22 -103 1 -25 3 -31 9 -20 8 13 39 15 191 14 99
-1 184 -4 187 -8 8 -7 -4 -8 -207 -8 -91 -1 -157 -3 -147 -5 9 -3 17 -8 17
-12 0 -4 39 -8 88 -8 48 -1 94 -2 102 -2 8 -1 32 1 53 3 28 3 37 1 37 -10 0
-9 5 -12 10 -9 6 4 8 10 5 15 -6 10 81 24 95 15 6 -4 18 -1 26 6 9 8 18 9 22
3 8 -10 88 -12 98 -1 12 12 22 8 44 -15 20 -21 20 -21 20 -2 0 12 7 21 16 21
10 0 14 -7 11 -19 -3 -10 -1 -18 4 -18 5 0 9 5 9 11 0 5 4 8 10 4 5 -3 18 3
30 15 12 12 20 15 20 8 0 -10 3 -9 9 1 7 11 9 11 14 0 4 -11 6 -11 6 -1 1 13
-5 16 -52 27 -16 3 -26 2 -23 -3 3 -5 -27 -7 -67 -5 -40 2 -193 6 -342 9 -181
4 -272 10 -277 17 -4 6 -6 28 -6 49 0 21 -6 46 -13 55 -13 15 -10 16 26 10 22
-3 51 -8 65 -11 14 -3 63 -13 110 -21 47 -9 103 -20 125 -25 40 -9 72 -16 130
-26 17 -3 58 -12 93 -20 71 -16 116 -18 108 -5 -7 10 -181 51 -409 94 -98 19
-180 37 -183 40 -3 3 16 35 42 73 26 37 41 63 33 58 -13 -8 31 57 58 84 7 7
13 22 13 32 0 10 4 21 9 24 5 3 12 22 15 42 4 19 9 41 12 48 6 16 -101 13
-120 -4 -8 -6 -34 -13 -58 -15 -24 -3 -70 -12 -102 -21 -33 -8 -70 -14 -83
-11 -12 2 -20 1 -18 -3 9 -14 -57 -3 -66 11 -7 9 -8 0 -4 -26 l5 -40 -15 30
c-8 17 -14 39 -15 51 0 12 -4 34 -10 50 -5 16 -11 40 -13 54 -1 14 -8 33 -13
44 -11 17 -11 17 -17 -3z m513 -124 c0 -2 -10 -28 -23 -58 -21 -50 -46 -92
-135 -231 -18 -28 -31 -57 -28 -64 3 -8 -6 -11 -27 -10 -23 1 -37 9 -49 28 -9
15 -29 34 -43 44 -27 17 -33 34 -12 34 17 0 129 92 212 174 99 98 30 51 -117
-80 -14 -13 -30 -24 -34 -24 -5 0 -25 -17 -46 -37 l-38 -37 -25 24 c-14 13
-25 31 -25 39 0 21 -29 100 -30 82 0 -8 -2 -12 -5 -10 -2 3 -2 15 1 26 5 18
16 23 63 28 31 4 79 13 106 20 28 7 66 16 85 19 19 4 62 12 95 20 74 17 75 17
75 13z m-437 -168 c-3 -10 -12 -19 -19 -19 -18 0 -18 19 0 26 8 3 12 13 9 22
-4 13 -3 14 5 3 5 -7 7 -22 5 -32z m637 -359 c0 -5 -8 -10 -17 -10 -15 0 -16
2 -3 10 19 12 20 12 20 0z m290 -20 c-8 -5 -18 -6 -24 -3 -5 4 -1 10 10 13 24
9 34 2 14 -10z"/>
<path d="M1931 1935 c0 -11 4 -27 9 -35 9 -13 10 -13 9 0 0 8 -4 24 -9 35 -9
20 -9 20 -9 0z"/>
<path d="M1900 1910 c0 -5 5 -10 11 -10 5 0 7 5 4 10 -3 6 -8 10 -11 10 -2 0
-4 -4 -4 -10z"/>
<path d="M1820 1895 c-7 -9 -8 -15 -2 -15 5 0 12 7 16 15 3 8 4 15 2 15 -2 0
-9 -7 -16 -15z"/>
<path d="M1861 1891 c-7 -5 -12 -13 -10 -18 2 -5 12 -1 22 9 18 19 12 24 -12
9z"/>
<path d="M1956 1805 c-3 -9 0 -15 9 -15 16 0 20 16 6 24 -5 3 -11 -1 -15 -9z"/>
<path d="M1995 1789 c-4 -6 -5 -12 -2 -15 2 -3 7 2 10 11 7 17 1 20 -8 4z"/>
<path d="M1953 1742 c-7 -4 -9 -13 -4 -21 6 -10 10 -9 15 5 8 20 4 25 -11 16z"/>
<path d="M1275 2134 c-11 -8 -24 -13 -31 -10 -6 2 -17 0 -25 -5 -10 -6 -4 -8
16 -5 39 5 65 16 65 27 0 12 -1 11 -25 -7z"/>
<path d="M1584 2142 c3 -5 -1 -20 -9 -35 -8 -15 -10 -27 -4 -27 5 0 9 5 9 11
0 5 3 8 8 6 4 -3 7 8 8 24 1 16 -3 29 -8 29 -5 0 -7 -4 -4 -8z"/>
<path d="M1168 2123 c6 -2 18 -2 25 0 6 3 1 5 -13 5 -14 0 -19 -2 -12 -5z"/>
<path d="M2025 2120 c-3 -6 1 -7 9 -4 18 7 21 14 7 14 -6 0 -13 -4 -16 -10z"/>
<path d="M2110 2121 c54 -8 93 -32 109 -67 6 -15 14 -24 17 -21 3 3 -1 18 -10
35 -19 36 -71 62 -123 61 l-38 -2 45 -6z"/>
<path d="M1001 2044 c0 -11 3 -14 6 -6 3 7 2 16 -1 19 -3 4 -6 -2 -5 -13z"/>
<path d="M1710 2021 c0 -6 4 -13 10 -16 6 -3 7 1 4 9 -7 18 -14 21 -14 7z"/>
<path d="M1063 1999 c9 -13 25 -35 34 -49 10 -14 28 -36 40 -50 13 -14 23 -30
23 -36 0 -19 48 -57 64 -51 9 4 16 11 16 17 0 18 -20 50 -31 50 -5 0 -3 -10 6
-23 8 -13 12 -27 9 -30 -10 -10 -34 41 -27 58 3 8 1 15 -4 15 -19 0 -75 59
-70 74 3 8 -2 20 -11 28 -15 11 -15 11 -5 -3 7 -9 10 -19 6 -22 -10 -11 -23
-8 -23 6 0 7 -10 18 -22 26 -22 14 -22 14 -5 -10z m115 -107 c6 -18 -15 -14
-22 4 -4 10 -1 14 6 12 6 -2 14 -10 16 -16z"/>
<path d="M910 1999 c0 -5 5 -7 10 -4 6 3 10 8 10 11 0 2 -4 4 -10 4 -5 0 -10
-5 -10 -11z"/>
<path d="M1650 1999 c0 -5 5 -7 10 -4 6 3 10 8 10 11 0 2 -4 4 -10 4 -5 0 -10
-5 -10 -11z"/>
<path d="M1556 1975 c4 -8 8 -15 10 -15 2 0 4 7 4 15 0 8 -4 15 -10 15 -5 0
-7 -7 -4 -15z"/>
<path d="M1589 1960 c-7 -35 -4 -48 7 -38 3 4 4 21 2 40 l-3 33 -6 -35z"/>
<path d="M748 1973 c6 -2 18 -2 25 0 6 3 1 5 -13 5 -14 0 -19 -2 -12 -5z"/>
<path d="M704 1945 c-3 -14 -3 -41 0 -60 l7 -35 -69 0 c-54 0 -83 -6 -127 -26
-57 -27 -57 -27 -94 -8 -57 29 -58 29 -18 -4 37 -30 39 -30 77 -17 21 8 49 19
62 26 13 7 42 11 64 10 23 -1 60 3 83 9 36 9 40 13 31 30 -14 26 -13 73 2 88
9 9 9 12 0 12 -6 0 -14 -11 -18 -25z"/>
<path d="M1650 1959 c0 -5 5 -7 10 -4 6 3 10 8 10 11 0 2 -4 4 -10 4 -5 0 -10
-5 -10 -11z"/>
<path d="M935 1949 c-11 -16 -1 -19 13 -3 7 8 8 14 3 14 -5 0 -13 -5 -16 -11z"/>
<path d="M1180 1955 c0 -3 9 -15 19 -26 13 -14 26 -19 40 -14 17 5 21 2 21
-17 0 -18 2 -20 10 -8 11 18 -7 43 -27 36 -7 -3 -22 3 -33 14 -20 20 -30 25
-30 15z"/>
<path d="M1076 1915 c4 -22 11 -44 16 -50 7 -7 8 2 3 25 -11 52 -27 73 -19 25z"/>
<path d="M1440 1909 c0 -5 5 -7 10 -4 6 3 10 8 10 11 0 2 -4 4 -10 4 -5 0 -10
-5 -10 -11z"/>
<path d="M1290 1886 c0 -2 7 -7 16 -10 8 -3 12 -2 9 4 -6 10 -25 14 -25 6z"/>
<path d="M2556 1867 c3 -10 9 -15 12 -12 3 3 0 11 -7 18 -10 9 -11 8 -5 -6z"/>
<path d="M1280 1861 c0 -6 4 -13 10 -16 6 -3 7 1 4 9 -7 18 -14 21 -14 7z"/>
<path d="M1600 1860 c18 -12 30 -13 30 -2 0 4 -10 9 -22 9 -18 2 -20 0 -8 -7z"/>
<path d="M1095 1830 c4 -14 14 -38 22 -53 8 -16 12 -35 9 -43 -3 -8 -1 -14 4
-14 16 0 15 45 -2 64 -10 10 -16 22 -14 25 3 3 -3 15 -11 26 -15 19 -15 19 -8
-5z"/>
<path d="M1140 1830 c0 -5 5 -10 11 -10 5 0 7 5 4 10 -3 6 -8 10 -11 10 -2 0
-4 -4 -4 -10z"/>
<path d="M1150 1795 c0 -8 2 -15 4 -15 2 0 6 7 10 15 3 8 1 15 -4 15 -6 0 -10
-7 -10 -15z"/>
<path d="M294 1758 l-19 -23 23 19 c21 18 27 26 19 26 -2 0 -12 -10 -23 -22z"/>
<path d="M640 1760 c-8 -5 -10 -10 -5 -10 6 0 17 5 25 10 8 5 11 10 5 10 -5 0
-17 -5 -25 -10z"/>
<path d="M2474 1759 c-3 -6 -2 -15 4 -21 6 -6 11 -2 15 11 5 22 -7 29 -19 10z"/>
<path d="M2608 1728 c-10 -10 -14 -18 -9 -18 10 0 36 29 30 34 -2 1 -12 -6
-21 -16z"/>
<path d="M248 1712 c-1 -4 -16 -17 -32 -30 -16 -12 -24 -22 -18 -22 16 0 80
59 65 60 -6 0 -13 -3 -15 -8z"/>
<path d="M450 1680 c-23 -7 -23 -8 -3 -9 12 -1 25 4 28 9 3 6 5 10 3 9 -2 -1
-14 -5 -28 -9z"/>
<path d="M368 1663 c7 -3 16 -2 19 1 4 3 -2 6 -13 5 -11 0 -14 -3 -6 -6z"/>
<path d="M2608 1654 c-3 -3 -18 -6 -32 -8 -15 -1 -25 -7 -24 -12 2 -5 10 -7
18 -5 8 2 37 5 63 8 42 4 49 2 54 -15 4 -17 11 -19 44 -15 45 6 69 -10 100
-67 10 -19 18 -29 19 -22 1 48 -73 118 -118 109 -17 -3 -35 2 -51 14 -23 18
-61 25 -73 13z"/>
<path d="M2850 1645 c-11 -13 -11 -24 0 -58 20 -69 29 -87 42 -86 10 0 10 2 1
6 -7 2 -13 18 -13 34 0 16 -7 45 -14 64 -15 35 -10 45 12 23 7 -7 12 -31 12
-54 0 -24 5 -46 10 -49 6 -4 10 14 10 48 0 40 -5 58 -18 70 -23 21 -26 21 -42
2z"/>
<path d="M988 1643 c6 -2 18 -2 25 0 6 3 1 5 -13 5 -14 0 -19 -2 -12 -5z"/>
<path d="M254 1608 l-29 -33 35 30 c19 17 37 31 39 33 2 1 0 2 -5 2 -6 0 -23
-15 -40 -32z"/>
<path d="M930 1631 c0 -5 9 -7 20 -4 11 3 20 7 20 9 0 2 -9 4 -20 4 -11 0 -20
-4 -20 -9z"/>
<path d="M658 1623 c6 -2 18 -2 25 0 6 3 1 5 -13 5 -14 0 -19 -2 -12 -5z"/>
<path d="M1000 1620 c-12 -7 -10 -9 7 -7 12 0 19 5 17 9 -6 10 -6 10 -24 -2z"/>
<path d="M1070 1621 c0 -6 4 -12 8 -15 5 -3 9 1 9 9 0 8 -4 15 -9 15 -4 0 -8
-4 -8 -9z"/>
<path d="M760 1610 c0 -5 15 -10 33 -10 24 0 28 3 17 10 -20 13 -50 13 -50 0z"/>
<path d="M637 1588 c-7 -28 -21 -36 -32 -19 -3 6 3 14 12 20 17 10 17 10 1 11
-10 0 -18 -4 -18 -10 0 -5 -7 -10 -16 -10 -8 0 -13 4 -10 9 4 5 -10 5 -32 0
-20 -5 -50 -9 -66 -9 -16 0 -35 -8 -42 -17 -12 -16 -13 -16 -8 -1 5 14 1 15
-28 9 -18 -4 -37 -8 -41 -9 -5 0 -11 -3 -14 -5 -6 -7 90 -27 100 -20 4 2 14
-1 22 -7 12 -10 19 -10 32 1 11 10 14 10 9 2 -9 -16 6 -17 21 -2 9 9 16 8 28
-5 9 -9 21 -16 26 -16 15 0 10 19 -11 40 -22 22 -27 39 -7 21 8 -6 16 -8 19
-5 4 3 9 -8 12 -24 4 -16 13 -29 22 -29 8 0 13 6 10 14 -3 7 1 13 8 13 8 0 22
3 31 6 9 4 15 3 14 -2 -4 -25 5 -30 49 -29 26 0 55 -3 64 -7 9 -5 19 -4 23 2
3 5 -3 10 -14 10 -12 0 -21 5 -21 11 0 5 5 7 10 4 6 -3 10 1 10 9 0 10 -6 13
-17 9 -12 -5 -15 -2 -10 9 4 12 -1 15 -19 14 -27 -1 -33 -16 -6 -17 10 0 12
-3 4 -6 -6 -2 -10 -9 -6 -14 3 -5 1 -9 -5 -9 -6 0 -14 12 -18 28 l-7 27 -7
-30 c-6 -29 -7 -29 -8 -4 0 15 -9 33 -18 40 -15 13 -16 12 -11 -9 4 -15 2 -22
-5 -19 -6 2 -14 14 -17 28 l-6 24 -7 -27z m-102 -18 c-3 -5 -12 -10 -18 -10
-7 0 -6 4 3 10 19 12 23 12 15 0z"/>
<path d="M720 1602 c0 -5 7 -9 15 -9 8 0 15 4 15 9 0 4 -7 8 -15 8 -8 0 -15
-4 -15 -8z"/>
<path d="M850 1604 c0 -11 29 -34 34 -26 2 4 -4 13 -15 20 -10 7 -19 10 -19 6z"/>
<path d="M2497 1599 c7 -7 15 -10 18 -7 3 3 -2 9 -12 12 -14 6 -15 5 -6 -5z"/>
<path d="M1045 1589 c-18 -7 -17 -8 7 -8 16 -1 28 -8 31 -18 4 -15 5 -15 6 -2
2 24 -21 38 -44 28z"/>
<path d="M2021 1591 c-9 -6 -10 -11 -2 -15 6 -4 11 -2 11 4 0 6 5 8 12 4 7 -4
8 -3 4 4 -8 14 -7 14 -25 3z"/>
<path d="M805 1581 c-3 -5 -1 -12 5 -16 5 -3 10 1 10 9 0 18 -6 21 -15 7z"/>
<path d="M918 1583 c7 -3 16 -2 19 1 4 3 -2 6 -13 5 -11 0 -14 -3 -6 -6z"/>
<path d="M2060 1579 c0 -5 5 -7 10 -4 6 3 10 8 10 11 0 2 -4 4 -10 4 -5 0 -10
-5 -10 -11z"/>
<path d="M828 1558 c-24 -24 -23 -31 4 -23 15 6 20 4 16 -6 -4 -10 6 -14 39
-16 l45 -2 -21 20 c-12 11 -19 24 -16 30 9 14 -2 11 -19 -7 -14 -13 -16 -14
-16 0 0 23 -13 25 -32 4z"/>
<path d="M948 1567 c-38 -15 -35 -30 12 -54 38 -21 39 -21 45 -2 4 11 15 19
27 19 36 0 9 14 -30 16 -20 1 -31 0 -24 -3 17 -6 15 -23 -2 -23 -14 0 -15 28
-1 50 3 6 5 10 3 9 -2 -1 -15 -6 -30 -12z"/>
<path d="M280 1550 c0 -5 5 -10 10 -10 6 0 10 5 10 10 0 6 -4 10 -10 10 -5 0
-10 -4 -10 -10z"/>
<path d="M2122 1549 c-53 -11 -46 -16 25 -16 53 -1 63 2 47 10 -25 14 -32 15
-72 6z"/>
<path d="M2592 1535 c7 -15 14 -22 16 -16 2 6 29 12 60 13 l57 1 -60 6 c-33 3
-66 10 -73 14 -10 7 -10 3 0 -18z"/>
<path d="M1990 1538 c0 -11 28 -10 35 1 3 6 -4 9 -15 8 -11 -1 -20 -5 -20 -9z"/>
<path d="M2040 1540 c0 -5 7 -10 15 -10 8 0 15 5 15 10 0 6 -7 10 -15 10 -8 0
-15 -4 -15 -10z"/>
<path d="M2220 1530 c0 -5 10 -10 23 -10 18 0 19 2 7 10 -19 13 -30 13 -30 0z"/>
<path d="M2280 1530 c0 -13 11 -13 30 0 12 8 11 10 -7 10 -13 0 -23 -4 -23
-10z"/>
<path d="M222 1495 c0 -16 2 -22 5 -12 2 9 2 23 0 30 -3 6 -5 -1 -5 -18z"/>
<path d="M160 1484 c0 -5 9 -22 20 -39 11 -16 20 -43 20 -60 0 -16 3 -47 7
-69 11 -70 94 -96 186 -57 24 11 62 21 83 23 38 3 39 2 42 -30 2 -18 8 -30 13
-27 14 9 11 51 -4 64 -19 15 -96 5 -148 -19 -24 -11 -55 -20 -68 -20 -34 0
-91 38 -84 56 3 8 -1 22 -8 31 -8 9 -13 18 -11 20 11 15 -2 75 -23 103 -14 19
-25 30 -25 24z"/>
<path d="M670 1484 c0 -2 9 -8 20 -14 11 -6 20 -7 20 -2 0 6 -9 12 -20 15 -11
3 -20 3 -20 1z"/>
<path d="M818 1460 c2 -16 8 -27 13 -25 4 3 5 13 2 22 -4 11 -3 14 5 9 7 -4
12 -3 12 2 0 8 -22 22 -34 22 -1 0 -1 -13 2 -30z"/>
<path d="M910 1470 c0 -12 -4 -18 -10 -15 -5 3 -10 3 -10 -2 0 -4 11 -13 25
-19 23 -11 24 -10 14 7 -5 11 -7 24 -4 29 3 5 1 11 -5 15 -5 3 -10 -3 -10 -15z"/>
<path d="M2728 1473 c-8 -10 -18 -27 -22 -38 -5 -14 1 -11 18 10 23 27 32 45
23 45 -2 0 -11 -8 -19 -17z"/>
<path d="M725 1470 c-3 -5 1 -10 9 -10 9 0 16 5 16 10 0 6 -4 10 -9 10 -6 0
-13 -4 -16 -10z"/>
<path d="M760 1471 c0 -5 5 -13 10 -16 6 -3 10 -2 10 4 0 5 -4 13 -10 16 -5 3
-10 2 -10 -4z"/>
<path d="M955 1470 c3 -5 8 -10 11 -10 2 0 4 5 4 10 0 6 -5 10 -11 10 -5 0 -7
-4 -4 -10z"/>
<path d="M1017 1464 c-4 -4 -7 -12 -7 -17 0 -6 3 -7 7 -3 4 3 12 -6 19 -21 7
-16 13 -21 13 -13 0 21 -24 62 -32 54z"/>
<path d="M256 1445 c-9 -26 -7 -32 5 -12 6 10 9 21 6 23 -2 3 -7 -2 -11 -11z"/>
<path d="M943 1448 c2 -7 10 -12 16 -10 6 1 11 -6 12 -15 0 -13 3 -11 10 6 5
13 7 26 4 29 -3 3 -5 0 -5 -7 0 -9 -5 -9 -21 0 -17 9 -20 8 -16 -3z"/>
<path d="M2465 1444 c-24 -18 -17 -24 15 -12 17 5 42 7 55 4 14 -4 25 -2 25 3
0 14 -77 18 -95 5z"/>
<path d="M2841 1447 c-1 -25 -44 -102 -92 -167 -37 -51 -28 -43 38 34 32 36
66 112 60 134 -4 15 -5 15 -6 -1z"/>
<path d="M2290 1439 c0 -5 5 -7 10 -4 6 3 10 8 10 11 0 2 -4 4 -10 4 -5 0 -10
-5 -10 -11z"/>
<path d="M2430 1439 c0 -10 -12 -14 -40 -14 -38 1 -61 -17 -40 -30 6 -4 10 -1
10 6 0 6 8 9 20 6 11 -3 20 -1 20 5 0 6 7 7 15 4 16 -6 33 19 21 31 -3 4 -6 0
-6 -8z"/>
<path d="M2103 1433 c-18 -7 -16 -23 2 -23 8 0 15 7 15 15 0 8 -1 15 -2 14 -2
0 -9 -3 -15 -6z"/>
<path d="M2215 1431 c-3 -5 -1 -12 5 -16 5 -3 10 1 10 9 0 18 -6 21 -15 7z"/>
<path d="M286 1414 c-5 -13 -4 -14 7 -6 8 7 18 8 22 4 5 -4 5 -1 1 6 -10 17
-23 15 -30 -4z"/>
<path d="M1921 1408 c-17 -28 -13 -31 11 -8 16 15 24 17 30 8 5 -10 8 -8 8 4
0 22 -34 20 -49 -4z"/>
<path d="M2021 1413 c7 -10 15 -20 16 -22 2 -2 3 3 3 11 0 9 -7 19 -16 22 -15
6 -15 4 -3 -11z"/>
<path d="M2058 1423 c7 -3 16 -2 19 1 4 3 -2 6 -13 5 -11 0 -14 -3 -6 -6z"/>
<path d="M2180 1420 c0 -5 -8 -10 -17 -10 -10 0 -25 -5 -33 -10 -11 -8 -7 -9
15 -4 16 4 35 7 41 7 7 0 10 6 7 14 -6 15 -13 17 -13 3z"/>
<path d="M2300 1409 c0 -7 -10 -9 -25 -5 -16 4 -25 2 -25 -5 0 -7 -9 -9 -21
-6 -12 3 -18 2 -13 -3 11 -10 114 -1 114 10 0 4 -7 10 -15 14 -8 3 -15 1 -15
-5z"/>
<path d="M2475 1400 c-25 -11 1 -11 35 0 20 6 21 8 5 8 -11 0 -29 -3 -40 -8z"/>
<path d="M2000 1390 c0 -5 5 -10 11 -10 5 0 7 5 4 10 -3 6 -8 10 -11 10 -2 0
-4 -4 -4 -10z"/>
<path d="M1940 1381 c0 -6 4 -13 10 -16 6 -3 7 1 4 9 -7 18 -14 21 -14 7z"/>
<path d="M2671 1367 c-13 -21 -12 -21 5 -5 10 10 16 20 13 22 -3 3 -11 -5 -18
-17z"/>
<path d="M2358 1373 c6 -2 18 -2 25 0 6 3 1 5 -13 5 -14 0 -19 -2 -12 -5z"/>
<path d="M2280 1360 c-20 -6 -21 -8 -5 -8 11 0 31 4 45 8 20 6 21 8 5 8 -11 0
-31 -4 -45 -8z"/>
<path d="M573 1337 c12 -13 24 -22 26 -20 6 4 -30 43 -40 43 -5 0 2 -10 14
-23z"/>
<path d="M2135 1350 c-3 -5 -1 -10 4 -10 6 0 11 5 11 10 0 6 -2 10 -4 10 -3 0
-8 -4 -11 -10z"/>
<path d="M2630 1335 c-7 -9 -8 -15 -2 -15 5 0 12 7 16 15 3 8 4 15 2 15 -2 0
-9 -7 -16 -15z"/>
<path d="M1961 1274 c0 -11 3 -14 6 -6 3 7 2 16 -1 19 -3 4 -6 -2 -5 -13z"/>
<path d="M592 1255 c0 -16 2 -22 5 -12 2 9 2 23 0 30 -3 6 -5 -1 -5 -18z"/>
<path d="M2285 1270 c-16 -7 -17 -9 -3 -9 9 -1 20 4 23 9 7 11 7 11 -20 0z"/>
<path d="M2343 1273 c15 -2 39 -2 55 0 15 2 2 4 -28 4 -30 0 -43 -2 -27 -4z"/>
<path d="M2475 1270 c-16 -7 -17 -9 -3 -9 9 -1 20 4 23 9 7 11 7 11 -20 0z"/>
<path d="M2151 1223 c-17 -21 -31 -44 -31 -53 0 -8 12 4 26 27 24 41 34 47 94
56 15 3 8 5 -17 6 -37 1 -45 -3 -72 -36z"/>
<path d="M646 1235 c-3 -8 -1 -15 4 -15 6 0 10 4 10 9 0 5 8 12 18 14 13 4 12
5 -4 6 -12 0 -24 -6 -28 -14z"/>
<path d="M1877 1203 c9 -25 33 -59 33 -47 0 5 -6 16 -12 22 -10 10 -10 15 0
21 11 7 10 10 -3 15 -24 9 -25 8 -18 -11z"/>
<path d="M2653 1213 c9 -2 25 -2 35 0 9 3 1 5 -18 5 -19 0 -27 -2 -17 -5z"/>
<path d="M522 1173 c-2 -45 16 -73 48 -73 10 0 25 -2 32 -5 8 -3 27 6 44 20
48 42 60 27 22 -28 l-21 -32 31 29 c31 29 44 76 21 76 -17 0 -53 -22 -67 -41
-10 -14 -20 -17 -45 -12 -46 8 -55 19 -60 66 l-4 42 -1 -42z"/>
<path d="M798 1164 c21 -26 33 -51 33 -74 2 -34 2 -34 6 -5 6 35 -18 85 -49
104 -16 10 -13 3 10 -25z"/>
<path d="M620 1174 c0 -8 5 -12 10 -9 6 4 8 11 5 16 -9 14 -15 11 -15 -7z"/>
<path d="M2566 1153 c-10 -3 -37 -15 -60 -27 -29 -15 -54 -21 -78 -18 -53 6
-75 -11 -93 -70 -8 -28 -13 -53 -11 -55 2 -3 7 6 11 19 4 13 14 38 22 56 14
30 18 32 67 32 29 0 57 5 62 10 6 6 42 22 80 35 59 21 59 33 0 18z"/>
<path d="M1800 1129 c0 -5 5 -7 10 -4 6 3 10 8 10 11 0 2 -4 4 -10 4 -5 0 -10
-5 -10 -11z"/>
<path d="M1780 1101 c0 -5 7 -12 16 -15 14 -5 15 -4 4 9 -14 17 -20 19 -20 6z"/>
<path d="M1430 1080 c0 -6 7 -10 15 -10 8 0 15 2 15 4 0 2 -7 6 -15 10 -8 3
-15 1 -15 -4z"/>
<path d="M1510 1069 c0 -5 -5 -7 -10 -4 -6 3 -22 -3 -36 -14 -14 -11 -33 -17
-42 -14 -14 4 -14 3 -3 -5 15 -11 44 -1 55 17 4 5 15 7 26 4 14 -4 20 0 20 11
0 9 -2 16 -5 16 -3 0 -5 -5 -5 -11z"/>
<path d="M685 1042 c-15 -21 -15 -24 -2 -13 22 17 22 4 0 -23 -17 -20 -17 -20
6 0 13 12 21 30 19 42 -3 19 -4 18 -23 -6z"/>
<path d="M1627 1040 c2 -14 11 -32 19 -40 13 -13 14 -12 5 12 -7 17 -7 29 -1
33 6 4 10 12 10 18 0 7 -7 4 -14 -6 -11 -14 -15 -15 -19 -5 -2 7 -2 2 0 -12z"/>
<path d="M2153 1015 c0 -33 2 -45 4 -27 2 18 2 45 0 60 -2 15 -4 0 -4 -33z"/>
<path d="M1558 1022 c-3 -11 -4 -81 -1 -156 2 -90 0 -136 -7 -136 -9 0 -15 28
-11 55 1 6 -6 1 -14 -9 -17 -22 -20 -51 -5 -41 6 3 10 -1 10 -9 0 -8 6 -16 13
-18 9 -2 11 -11 6 -28 -7 -24 -7 -24 -8 -2 -2 33 -16 27 -16 -8 -1 -17 4 -29
10 -27 5 3 11 -12 13 -34 3 -40 -5 -48 -26 -27 -13 13 -16 5 -12 -47 3 -44
-14 -19 -29 44 -11 45 -11 55 0 62 10 6 8 8 -7 7 l-21 -2 24 -86 c31 -110 31
-113 32 -127 1 -7 5 -13 10 -13 5 0 5 15 1 35 -8 35 -3 44 15 25 7 -6 10 5 9
28 -1 20 2 42 7 48 12 15 21 142 21 309 1 77 3 128 5 113 2 -16 8 -28 13 -28
10 0 -5 69 -18 82 -6 6 -11 2 -14 -10z m-31 -484 c-3 -8 -6 -5 -6 6 -1 11 2
17 5 13 3 -3 4 -12 1 -19z"/>
<path d="M1590 1021 c0 -5 5 -13 10 -16 6 -3 10 -2 10 4 0 5 -4 13 -10 16 -5
3 -10 2 -10 -4z"/>
<path d="M1503 985 c0 -22 2 -30 4 -17 2 12 2 30 0 40 -3 9 -5 -1 -4 -23z"/>
<path d="M689 953 c-8 -9 -9 -14 -2 -10 7 5 13 -1 16 -15 3 -17 5 -14 6 10 1
37 -1 39 -20 15z"/>
<path d="M2306 954 c-9 -23 -7 -73 3 -93 6 -10 28 -23 50 -31 22 -7 42 -20 44
-29 4 -13 5 -13 6 2 1 11 -14 25 -44 39 -48 23 -62 52 -49 102 7 28 0 36 -10
10z"/>
<path d="M1632 930 c0 -14 2 -19 5 -12 2 6 2 18 0 25 -3 6 -5 1 -5 -13z"/>
<path d="M1511 924 c0 -11 3 -14 6 -6 3 7 2 16 -1 19 -3 4 -6 -2 -5 -13z"/>
<path d="M1532 915 c0 -16 2 -22 5 -12 2 9 2 23 0 30 -3 6 -5 -1 -5 -18z"/>
<path d="M1601 924 c0 -11 3 -14 6 -6 3 7 2 16 -1 19 -3 4 -6 -2 -5 -13z"/>
<path d="M1410 920 c0 -5 5 -10 10 -10 6 0 10 5 10 10 0 6 -4 10 -10 10 -5 0
-10 -4 -10 -10z"/>
<path d="M1599 893 c-4 -42 -3 -73 3 -73 5 0 7 18 6 40 -1 35 -7 54 -9 33z"/>
<path d="M1530 843 c0 -20 3 -33 6 -30 11 10 13 67 3 67 -5 0 -9 -16 -9 -37z"/>
<path d="M831 811 c-1 -24 2 -32 9 -25 7 7 7 19 1 35 -9 23 -10 22 -10 -10z"/>
<path d="M1503 801 c0 -11 5 -17 9 -15 11 7 10 34 -1 34 -6 0 -9 -9 -8 -19z"/>
<path d="M2180 798 c0 -7 5 -20 10 -28 8 -12 10 -11 10 7 0 12 -4 25 -10 28
-5 3 -10 0 -10 -7z"/>
<path d="M876 779 c-11 -11 -17 -21 -14 -24 2 -3 13 4 23 15 24 26 16 33 -9 9z"/>
<path d="M704 743 c8 -83 70 -135 162 -137 44 0 57 4 89 32 35 31 38 32 55 17
10 -9 21 -38 25 -66 7 -52 22 -67 69 -71 21 -2 24 -6 19 -28 -3 -17 1 -31 13
-41 9 -8 19 -13 21 -11 15 11 77 -69 94 -123 6 -15 7 -13 8 11 1 17 -6 37 -14
44 -8 7 -25 30 -37 51 -15 26 -29 39 -47 41 -28 3 -44 38 -17 38 24 0 7 29
-20 35 -78 16 -74 13 -74 54 0 42 -31 91 -57 91 -8 0 -31 -13 -50 -30 -41 -36
-94 -40 -152 -11 -48 25 -61 42 -78 99 l-13 47 4 -42z"/>
<path d="M2401 764 c0 -11 3 -14 6 -6 3 7 2 16 -1 19 -3 4 -6 -2 -5 -13z"/>
<path d="M948 757 c-21 -8 -28 -17 -27 -36 1 -22 2 -22 6 -5 2 11 18 28 36 37
36 18 26 20 -15 4z"/>
<path d="M1016 763 c6 -4 19 -22 28 -40 9 -17 20 -34 25 -37 5 -4 -1 13 -13
36 -12 23 -28 43 -36 46 -10 2 -11 1 -4 -5z"/>
<path d="M1868 763 c6 -2 18 -2 25 0 6 3 1 5 -13 5 -14 0 -19 -2 -12 -5z"/>
<path d="M1798 753 c7 -3 16 -2 19 1 4 3 -2 6 -13 5 -11 0 -14 -3 -6 -6z"/>
<path d="M2001 733 c7 -12 15 -20 18 -17 3 2 -3 12 -13 22 -17 16 -18 16 -5
-5z"/>
<path d="M874 729 c-3 -6 -1 -16 5 -22 8 -8 11 -5 11 11 0 24 -5 28 -16 11z"/>
<path d="M1737 733 c-4 -3 -7 -18 -6 -32 1 -26 1 -25 10 3 9 31 7 41 -4 29z"/>
<path d="M2110 720 c-14 -11 -22 -20 -18 -20 14 0 58 23 58 32 0 13 -13 9 -40
-12z"/>
<path d="M2401 712 c-1 -29 -7 -36 -44 -52 -24 -11 -55 -28 -69 -39 -13 -11
-38 -23 -54 -26 -32 -8 -186 -57 -193 -62 -2 -2 -2 -5 1 -8 9 -9 220 67 269
97 25 15 51 28 56 28 21 0 44 39 40 67 -4 27 -4 26 -6 -5z"/>
<path d="M1105 689 c-18 -8 -17 -9 5 -5 15 3 32 -2 44 -12 18 -16 18 -16 7 6
-13 24 -24 26 -56 11z"/>
<path d="M2058 693 c7 -3 16 -2 19 1 4 3 -2 6 -13 5 -11 0 -14 -3 -6 -6z"/>
<path d="M1840 676 c0 -3 9 -20 20 -38 24 -40 27 -151 6 -203 -22 -52 -54 -55
-131 -14 -35 19 -67 31 -70 27 -9 -9 -45 -148 -45 -176 0 -30 -19 -36 -87 -27
-44 5 -63 13 -84 36 -21 23 -28 26 -33 14 -8 -22 -30 -19 -72 10 -42 28 -56
31 -48 10 3 -8 9 -13 12 -12 4 1 24 -8 44 -21 31 -19 41 -21 58 -12 18 9 24 8
34 -5 14 -19 73 -34 133 -35 39 0 43 3 48 28 14 66 37 149 45 162 8 13 17 11
60 -13 70 -39 116 -35 142 13 16 28 19 51 16 122 -3 81 -2 85 16 76 10 -5 37
-15 59 -22 31 -9 43 -18 47 -36 l6 -25 7 25 c7 27 -13 50 -44 50 -25 0 -68 20
-106 48 -18 14 -33 22 -33 18z"/>
<path d="M1177 615 c3 -16 12 -44 20 -62 16 -41 16 -41 -4 -46 -13 -3 -14 -5
-3 -6 22 -1 48 19 33 26 -7 2 -13 12 -14 21 0 10 -9 35 -19 57 -17 34 -18 36
-13 10z"/>
<path d="M1516 611 c-3 -5 1 -11 9 -15 9 -3 15 0 15 9 0 16 -16 20 -24 6z"/>
<path d="M1662 608 c-20 -20 -14 -27 12 -15 13 7 22 15 20 19 -7 11 -18 10
-32 -4z"/>
<path d="M1752 585 c0 -16 2 -22 5 -12 2 9 2 23 0 30 -3 6 -5 -1 -5 -18z"/>
<path d="M1702 570 c0 -14 2 -19 5 -12 2 6 2 18 0 25 -3 6 -5 1 -5 -13z"/>
<path d="M1624 513 c-4 -21 -13 -50 -20 -65 -21 -41 -16 -48 6 -8 19 37 37
110 27 110 -4 0 -9 -17 -13 -37z"/>
<path d="M1261 434 c0 -11 3 -14 6 -6 3 7 2 16 -1 19 -3 4 -6 -2 -5 -13z"/>
<path d="M1338 440 c12 -5 22 -13 22 -18 0 -4 7 -17 15 -28 13 -17 13 -15 1
16 -10 24 -21 36 -38 37 l-23 3 23 -10z"/>
<path d="M1530 405 c-11 -13 -11 -18 0 -28 10 -9 11 -9 5 2 -4 8 -2 17 6 22 7
4 11 11 8 14 -4 3 -12 -2 -19 -10z"/>
<path d="M1592 350 c0 -14 2 -19 5 -12 2 6 2 18 0 25 -3 6 -5 1 -5 -13z"/>
<path d="M1407 349 c7 -7 15 -10 18 -7 3 3 -2 9 -12 12 -14 6 -15 5 -6 -5z"/>
<path d="M1440 336 c0 -2 8 -10 18 -17 15 -13 16 -12 3 4 -13 16 -21 21 -21
13z"/>
<path d="M1539 303 c-13 -16 -12 -17 4 -4 16 13 21 21 13 21 -2 0 -10 -8 -17
-17z"/>
<path d="M1498 283 c7 -3 16 -2 19 1 4 3 -2 6 -13 5 -11 0 -14 -3 -6 -6z"/>
</g>
</svg>
